<svg xmlns="http://www.w3.org/2000/svg" width="16" height="17" fill="none"><path fill="#0f5395" d="M7.653 6.122V3.827H5.357V2.296h2.296V0h1.53v2.296h2.297v1.53H9.184v2.296zm-3.061 9.95q-.631 0-1.081-.45t-.45-1.081.45-1.081 1.08-.45q.633 0 1.082.45t.45 1.08q0 .633-.45 1.082t-1.081.45m7.653 0q-.631 0-1.081-.45t-.45-1.081.45-1.081 1.08-.45q.633 0 1.082.45t.45 1.08q0 .633-.45 1.082t-1.081.45M0 2.295V.766h2.506L5.76 7.652h5.357l2.985-5.357h1.74L12.476 8.38q-.21.383-.565.593-.354.21-.775.21H5.434l-.842 1.531h9.183v1.53H4.592q-.861 0-1.31-.745-.45-.747-.03-1.512l1.034-1.875L1.53 2.296z"/></svg>
