<svg xmlns="http://www.w3.org/2000/svg" viewBox="0 0 78.087 19.8574" fill="none" aria-hidden="true">
  <g fill="#001e40">
    <path d="M71.9338 10.167H67.054L66.4734 11.5117C66.2832 11.96 66.1881 12.3301 66.1881 12.6221C66.1881 13.0093 66.3443 13.2945 66.6567 13.4779C66.8401 13.5865 67.2918 13.668 68.0117 13.7224V14.0993H63.4172V13.7224C63.9129 13.6477 64.3204 13.4439 64.6396 13.1111C64.9588 12.7716 65.3528 12.0754 65.8214 11.0227L70.7622 0H70.9558L75.9374 11.3283C76.4128 12.4014 76.8033 13.0772 77.109 13.3556C77.3399 13.5662 77.6659 13.6884 78.087 13.7224V14.0993H71.404V13.7224H71.6791C72.2156 13.7224 72.5926 13.6477 72.8099 13.4982C72.9593 13.3896 73.034 13.2334 73.034 13.0296C73.034 12.9074 73.0137 12.7817 72.9729 12.6527C72.9593 12.5916 72.8574 12.3369 72.6673 11.8886L71.9338 10.167ZM71.5874 9.41312L69.5296 4.65562L67.4106 9.41312H71.5874Z" />
    <path d="M54.2906 0.285062L61.1059 8.85263V2.9134C61.1059 2.08483 60.9871 1.52452 60.7494 1.23249C60.4234 0.838575 59.8766 0.648411 59.1092 0.661994V0.285062H63.6731V0.661994C63.0891 0.736701 62.6951 0.835179 62.4914 0.957427C62.2944 1.07288 62.1382 1.26644 62.0228 1.53811C61.9141 1.80298 61.8598 2.26141 61.8598 2.9134V14.4149H61.5134L52.1716 2.9134V11.6949C52.1716 12.4895 52.3516 13.0261 52.7115 13.3045C53.0783 13.583 53.496 13.7222 53.9646 13.7222H54.2906V14.0991H49.3904V13.7222C50.1511 13.7154 50.6808 13.5592 50.9797 13.2536C51.2785 12.9479 51.4279 12.4284 51.4279 11.6949V1.9456L51.1325 1.57886C50.8405 1.21211 50.5824 0.97101 50.3582 0.855554C50.1341 0.740097 49.8115 0.675577 49.3904 0.661994V0.285062H54.2906Z" />
    <path d="M42.7805 10.167H37.9008L37.3201 11.5117C37.1299 11.96 37.0348 12.3301 37.0348 12.6221C37.0348 13.0093 37.191 13.2945 37.5035 13.4779C37.6868 13.5865 38.1385 13.668 38.8584 13.7224V14.0993H34.2639V13.7224C34.7597 13.6477 35.1672 13.4439 35.4864 13.1111C35.8056 12.7716 36.1995 12.0754 36.6681 11.0227L41.609 0H41.8025L46.7841 11.3283C47.2595 12.4014 47.6501 13.0772 47.9557 13.3556C48.1866 13.5662 48.5126 13.6884 48.9337 13.7224V14.0993H42.2508V13.7224H42.5258C43.0624 13.7224 43.4393 13.6477 43.6566 13.4982C43.806 13.3896 43.8807 13.2334 43.8807 13.0296C43.8807 12.9074 43.8604 12.7817 43.8196 12.6527C43.806 12.5916 43.7042 12.3369 43.514 11.8886L42.7805 10.167ZM42.4341 9.41312L40.3763 4.65562L38.2573 9.41312H42.4341Z" />
    <path d="M27.42 0.285062V0.661994H28.0007C28.3878 0.661994 28.6934 0.72991 28.9176 0.865741C29.1485 0.994781 29.3013 1.14759 29.376 1.32417C29.4575 1.50075 29.4982 1.94221 29.4982 2.64853C29.4982 2.64853 29.5253 10.5469 29.5275 15.6078C29.528 16.7929 29.6732 18.561 29.0888 18.7571C28.0001 19.1249 28.0468 17.953 26.9709 16.7071C25.8949 15.4613 23.8788 16.809 24.8642 18.4173C25.8495 20.0256 27.288 19.8897 28.2733 19.8217C29.2587 19.7538 30.2723 18.8841 30.7764 18.3267C31.5805 17.5226 32.4313 16.3107 32.4313 14.9863L32.402 2.64853C32.402 1.95579 32.4394 1.52792 32.5141 1.36492C32.6159 1.13401 32.7518 0.97101 32.9216 0.875928C33.1661 0.733305 33.4921 0.661994 33.8995 0.661994H34.3478V0.285062H27.42Z" />
    <path d="M19.5687 1.07968V6.7031H19.8438C20.7199 6.7031 21.3549 6.42804 21.7488 5.87792C22.1427 5.3278 22.394 4.51621 22.5027 3.44314H22.8898V10.6762H22.5027C22.4212 9.88834 22.248 9.24315 21.9831 8.74057C21.725 8.23799 21.4228 7.90181 21.0764 7.73202C20.7301 7.55544 20.2275 7.46715 19.5687 7.46715V11.3587C19.5687 12.1194 19.5993 12.5846 19.6604 12.7544C19.7283 12.9242 19.8506 13.0634 20.0271 13.1721C20.2037 13.2807 20.489 13.3351 20.8829 13.3351H21.708C22.9984 13.3351 24.0308 13.0362 24.805 12.4386C25.586 11.8409 26.1463 10.9309 26.4859 9.70837H26.8629L26.2414 14.0991H14.3018V13.7222H14.7603C15.161 13.7222 15.4836 13.6509 15.7281 13.5083C15.9047 13.4132 16.0405 13.2502 16.1356 13.0193C16.2103 12.8563 16.2476 12.4284 16.2476 11.7357V2.64853C16.2476 2.0237 16.2306 1.63998 16.1967 1.49736C16.1288 1.25965 16.0031 1.07628 15.8198 0.94724C15.5617 0.757076 15.2085 0.661994 14.7603 0.661994H14.3018V0.285062H25.8645V4.37019H25.4774C25.2804 3.37183 25.002 2.65532 24.642 2.22066C24.2888 1.786 23.7863 1.4668 23.1343 1.26305C22.754 1.1408 22.0408 1.07968 20.9949 1.07968H19.5687Z" />
    <path d="M0 14.0991V13.7222H0.458431C0.859134 13.7222 1.16475 13.6611 1.37529 13.5388C1.59262 13.4098 1.75223 13.2366 1.8541 13.0193C1.91522 12.8766 1.94579 12.4488 1.94579 11.7357V2.64853C1.94579 1.94221 1.90843 1.50075 1.83372 1.32417C1.75902 1.14759 1.60621 0.994781 1.37529 0.865741C1.15117 0.72991 0.845551 0.661994 0.458431 0.661994H0V0.285062H6.18373C7.83408 0.285062 9.16183 0.509184 10.167 0.957427C11.3963 1.50754 12.3267 2.33951 12.9583 3.45333C13.5967 4.56715 13.9159 5.82698 13.9159 7.23284C13.9159 8.20403 13.7597 9.10052 13.4473 9.9223C13.1349 10.7373 12.7308 11.4131 12.235 11.9496C11.7392 12.4793 11.1653 12.9072 10.5134 13.2332C9.86815 13.5524 9.07694 13.8003 8.1397 13.9769C7.72541 14.0584 7.07342 14.0991 6.18373 14.0991H0ZM5.26686 1.06949V11.8477C5.26686 12.4182 5.29403 12.768 5.34836 12.897C5.4027 13.0261 5.49438 13.1245 5.62342 13.1924C5.80679 13.2943 6.07166 13.3453 6.41803 13.3453C7.55223 13.3453 8.41815 12.9581 9.01581 12.1839C9.8308 11.138 10.2383 9.51481 10.2383 7.31434C10.2383 5.54174 9.95984 4.1257 9.40293 3.06621C8.96148 2.23764 8.39438 1.67394 7.70164 1.37511C7.21265 1.16457 6.40106 1.0627 5.26686 1.06949Z" />
  </g>
</svg>
