<svg preserveAspectRatio="none" width="100%" height="100%" overflow="visible" style="display: block;" viewBox="0 0 13 15" fill="none" xmlns="http://www.w3.org/2000/svg">
<path id="PDF Icon" d="M13 3.29297V13.5C13 13.8978 12.8419 14.2792 12.5605 14.5605C12.2792 14.8419 11.8978 15 11.5 15H1.5C1.10218 15 0.720758 14.8419 0.439453 14.5605C0.158149 14.2792 0 13.8978 0 13.5V1.5C0 1.10218 0.158149 0.720758 0.439453 0.439453C0.720758 0.158149 1.10218 0 1.5 0H9.70703L13 3.29297ZM1 11H2V9H2.5C2.89782 9 3.27924 8.84185 3.56055 8.56055C3.84185 8.27924 4 7.89782 4 7.5C4 7.10218 3.84185 6.72076 3.56055 6.43945C3.27924 6.15815 2.89782 6 2.5 6H1V11ZM5 11H6.5C6.89782 11 7.27924 10.8419 7.56055 10.5605C7.84185 10.2792 8 9.89782 8 9.5V7.5C8 7.10218 7.84185 6.72076 7.56055 6.43945C7.27924 6.15815 6.89782 6 6.5 6H5V11ZM9 11H10V9H11V8H10V7H12V6H9V11ZM6.51855 7C6.65137 7.00011 6.77912 7.05281 6.87305 7.14648C6.96694 7.24023 7.01953 7.36749 7.01953 7.5V9.5C7.01953 9.63251 6.96694 9.75977 6.87305 9.85352C6.77912 9.94719 6.65137 9.99989 6.51855 10H6.0166V7H6.51855ZM2.50684 7C2.63972 7 2.76732 7.05283 2.86133 7.14648C2.95535 7.24025 3.00879 7.36739 3.00879 7.5C3.00879 7.63261 2.95535 7.75975 2.86133 7.85352C2.76732 7.94717 2.63972 8 2.50684 8H2.00586V7H2.50684Z" fill="var(--fill-0, black)"/>
</svg>
