<svg preserveAspectRatio="none" width="100%" height="100%" overflow="visible" style="display: block;" viewBox="0 0 232.265 59.0649" fill="none" xmlns="http://www.w3.org/2000/svg">
<g id="DEJANA">
<path id="Vector" d="M213.963 30.2411H199.448L197.721 34.241C197.156 35.5742 196.873 36.6752 196.873 37.5439C196.873 38.6953 197.337 39.5438 198.267 40.0892C198.812 40.4124 200.155 40.6548 202.297 40.8164V41.9376H188.631V40.8164C190.105 40.5942 191.317 39.9882 192.267 38.9983C193.216 37.9883 194.388 35.9177 195.782 32.7865L210.478 0H211.054L225.871 33.6955C227.286 36.8873 228.447 38.8973 229.356 39.7256C230.043 40.3518 231.013 40.7154 232.265 40.8164V41.9376H212.387V40.8164H213.205C214.801 40.8164 215.922 40.5942 216.569 40.1498C217.013 39.8266 217.235 39.362 217.235 38.7559C217.235 38.3923 217.175 38.0186 217.054 37.6348C217.013 37.4529 216.71 36.6954 216.145 35.3621L213.963 30.2411ZM212.933 27.9988L206.812 13.8479L200.509 27.9988H212.933Z" fill="var(--fill-0, #0F5395)"/>
<path id="Vector_2" d="M161.484 0.848024L181.756 26.3318V8.66587C181.756 6.20133 181.403 4.53474 180.696 3.66609C179.726 2.49442 178.1 1.92879 175.817 1.96919V0.848024H189.392V1.96919C187.655 2.1914 186.483 2.48432 185.877 2.84794C185.291 3.19136 184.827 3.76709 184.483 4.57514C184.16 5.36298 183.998 6.72656 183.998 8.66587V42.8765H182.968L155.181 8.66587V34.786C155.181 37.1495 155.717 38.7454 156.787 39.5736C157.878 40.4019 159.121 40.816 160.515 40.816H161.484V41.9372H146.909V40.816C149.172 40.7958 150.747 40.3312 151.636 39.4221C152.525 38.5131 152.969 36.9677 152.969 34.786V5.78721L152.091 4.69634C151.222 3.60548 150.454 2.88834 149.788 2.54492C149.121 2.2015 148.162 2.00959 146.909 1.96919V0.848024H161.484Z" fill="var(--fill-0, #0F5395)"/>
<path id="Vector_3" d="M127.248 30.2411H112.734L111.006 34.241C110.441 35.5742 110.158 36.6752 110.158 37.5439C110.158 38.6953 110.623 39.5438 111.552 40.0892C112.097 40.4124 113.441 40.6548 115.582 40.8164V41.9376H101.916V40.8164C103.391 40.5942 104.603 39.9882 105.552 38.9983C106.502 37.9883 107.673 35.9177 109.067 32.7865L123.763 0H124.339L139.157 33.6955C140.571 36.8873 141.732 38.8973 142.641 39.7256C143.328 40.3518 144.298 40.7154 145.55 40.8164V41.9376H125.672V40.8164H126.491C128.086 40.8164 129.208 40.5942 129.854 40.1498C130.299 39.8266 130.521 39.362 130.521 38.7559C130.521 38.3923 130.46 38.0186 130.339 37.6348C130.299 37.4529 129.996 36.6954 129.43 35.3621L127.248 30.2411ZM126.218 27.9988L120.097 13.8479L113.794 27.9988H126.218Z" fill="var(--fill-0, #0F5395)"/>
<path id="Vector_4" d="M81.5593 0.848024V1.96919H83.2865C84.438 1.96919 85.3471 2.1712 86.0137 2.57522C86.7006 2.95904 87.1551 3.41357 87.3773 3.9388C87.6197 4.46403 87.7409 5.77711 87.7409 7.87803C87.7409 7.87803 87.8215 31.3712 87.828 46.4246C87.8295 49.9498 88.2614 55.2086 86.523 55.7921C83.2847 56.8859 83.4238 53.4002 80.2234 49.6945C77.023 45.9888 71.0263 49.9977 73.9572 54.7814C76.8881 59.5652 81.1666 59.1609 84.0975 58.9588C87.0283 58.7566 90.0432 56.1698 91.5427 54.5119C93.9345 52.1201 96.4652 48.5154 96.4652 44.5762L96.378 7.87803C96.378 5.81751 96.4891 4.54484 96.7114 4.06001C97.0144 3.37317 97.4184 2.88834 97.9234 2.60552C98.6507 2.1813 99.6203 1.96919 100.832 1.96919H102.166V0.848024H81.5593Z" fill="var(--fill-0, #0F5395)"/>
<path id="Vector_5" d="M58.206 3.21156V19.9381H59.0241C61.6301 19.9381 63.5189 19.12 64.6905 17.4837C65.8622 15.8474 66.6096 13.4333 66.9329 10.2416H68.0843V31.7558H66.9329C66.6904 29.4125 66.1753 27.4934 65.3875 25.9985C64.6198 24.5036 63.7209 23.5036 62.6906 22.9986C61.6604 22.4734 60.1655 22.2107 58.206 22.2107V33.786C58.206 36.0485 58.2969 37.4323 58.4787 37.9374C58.6807 38.4424 59.0443 38.8565 59.5695 39.1797C60.0948 39.5029 60.9432 39.6646 62.1149 39.6646H64.5693C68.4075 39.6646 71.4781 38.7757 73.7811 36.998C76.1042 35.2203 77.7708 32.5133 78.7808 28.8771H79.902L78.0536 41.9372H42.54V40.816H43.9035C45.0954 40.816 46.055 40.6039 46.7822 40.1797C47.3074 39.8969 47.7115 39.412 47.9943 38.7252C48.2165 38.2404 48.3276 36.9677 48.3276 34.9072V7.87803C48.3276 6.01952 48.2771 4.87815 48.1761 4.45393C47.9741 3.74689 47.6004 3.20146 47.0549 2.81764C46.2873 2.252 45.2368 1.96919 43.9035 1.96919H42.54V0.848024H76.9324V12.999H75.781C75.1951 10.0295 74.3669 7.89823 73.2962 6.60535C72.2458 5.31248 70.7509 4.36303 68.8116 3.75699C67.6803 3.39337 65.5592 3.21156 62.4482 3.21156H58.206Z" fill="var(--fill-0, #0F5395)"/>
<path id="Vector_6" d="M0 41.9372V40.816H1.36358C2.55545 40.816 3.4645 40.6342 4.09073 40.2706C4.73717 39.8868 5.2119 39.3716 5.51492 38.7252C5.69673 38.301 5.78763 37.0283 5.78763 34.9072V7.87803C5.78763 5.77711 5.67653 4.46403 5.45431 3.9388C5.2321 3.41357 4.77757 2.95904 4.09073 2.57522C3.4241 2.1712 2.51504 1.96919 1.36358 1.96919H0V0.848024H18.3932C23.302 0.848024 27.2514 1.51466 30.2411 2.84794C33.8975 4.48423 36.6651 6.95887 38.5438 10.2719C40.4427 13.5849 41.3922 17.3322 41.3922 21.5138C41.3922 24.4026 40.9275 27.0691 39.9983 29.5135C39.069 31.9376 37.8671 33.9476 36.3924 35.5435C34.9177 37.1192 33.2107 38.3919 31.2714 39.3615C29.3523 40.311 26.9988 41.0483 24.2111 41.5736C22.9788 41.816 21.0395 41.9372 18.3932 41.9372H0ZM15.666 3.18126V35.2405C15.666 36.9374 15.7468 37.9778 15.9084 38.3616C16.07 38.7454 16.3427 39.0383 16.7266 39.2403C17.272 39.5433 18.0598 39.6949 19.0901 39.6949C22.4637 39.6949 25.0393 38.5434 26.817 36.2405C29.2412 33.1295 30.4532 28.3014 30.4532 21.7562C30.4532 16.4837 29.625 12.2718 27.9685 9.1204C26.6554 6.65586 24.9686 4.97916 22.9081 4.09031C21.4536 3.46407 19.0396 3.16106 15.666 3.18126Z" fill="var(--fill-0, #0F5395)"/>
</g>
</svg>
