<svg preserveAspectRatio="none" width="100%" height="100%" overflow="visible" style="display: block;" viewBox="0 0 253.966 237.626" fill="none" xmlns="http://www.w3.org/2000/svg">
<path id="Vector" opacity="0.4" d="M126.983 0.5C196.897 0.500231 253.466 50.2122 253.466 111.402C253.466 172.593 196.897 222.304 126.983 222.305H126.982H126.981C114.443 222.334 101.955 220.703 89.8428 217.452L89.6572 217.402L89.4863 217.489C80.4224 222.103 59.7031 230.92 24.9492 236.803L23.2842 237.08C20.5471 237.521 18.3786 234.637 19.4922 232.008V232.007C25.1273 218.664 30.2223 200.886 31.7676 184.657L31.7891 184.424L31.624 184.257C12.2312 164.765 0.5 139.266 0.5 111.402C0.500061 50.212 57.0698 0.5 126.983 0.5Z" stroke="var(--stroke-0, white)" stroke-opacity="0.52"/>
</svg>
