<svg preserveAspectRatio="none" width="100%" height="100%" overflow="visible" style="display: block;" viewBox="0 0 20 20" fill="none" xmlns="http://www.w3.org/2000/svg">
<g id="fa7-solid:shipping-fast">
<path id="Vector" d="M2 5C2 3.89688 2.89688 3 4 3H13C14.1031 3 15 3.89688 15 5V6H16.5844C17.1156 6 17.625 6.20937 18 6.58437L19.4156 8C19.7906 8.375 20 8.88437 20 9.41562V14C20 15.1031 19.1031 16 18 16H17.8969C17.5719 17.1531 16.5094 18 15.25 18C13.9906 18 12.9312 17.1531 12.6031 16H9.39688C9.07188 17.1531 8.00937 18 6.75 18C5.49063 18 4.43125 17.1531 4.10313 16H4C2.89688 16 2 15.1031 2 14V12.5H0.75C0.334375 12.5 0 12.1656 0 11.75C0 11.3344 0.334375 11 0.75 11H4.25C4.66563 11 5 10.6656 5 10.25C5 9.83437 4.66563 9.5 4.25 9.5H0.75C0.334375 9.5 0 9.16563 0 8.75C0 8.33437 0.334375 8 0.75 8H6.25C6.66563 8 7 7.66563 7 7.25C7 6.83437 6.66563 6.5 6.25 6.5H0.75C0.334375 6.5 0 6.16563 0 5.75C0 5.33437 0.334375 5 0.75 5H2ZM18 11V9.41562L16.5844 8H15V11H18ZM8 15.25C8 14.5594 7.44063 14 6.75 14C6.05937 14 5.5 14.5594 5.5 15.25C5.5 15.9406 6.05937 16.5 6.75 16.5C7.44063 16.5 8 15.9406 8 15.25ZM15.25 16.5C15.9406 16.5 16.5 15.9406 16.5 15.25C16.5 14.5594 15.9406 14 15.25 14C14.5594 14 14 14.5594 14 15.25C14 15.9406 14.5594 16.5 15.25 16.5Z" fill="var(--fill-0, white)"/>
</g>
</svg>
