<svg preserveAspectRatio="none" width="100%" height="100%" overflow="visible" style="display: block;" viewBox="0 0 19.1582 14.9008" fill="none" xmlns="http://www.w3.org/2000/svg">
<path id="Vector" fill-rule="evenodd" clip-rule="evenodd" d="M0.935559 0.935559C-6.34399e-08 1.87005 0 3.3761 0 6.38607V8.51476C0 11.5247 -6.34399e-08 13.0308 0.935559 13.9653C1.87005 14.9008 3.3761 14.9008 6.38607 14.9008H12.7721C15.7821 14.9008 17.2882 14.9008 18.2226 13.9653C19.1582 13.0308 19.1582 11.5247 19.1582 8.51476V6.38607C19.1582 3.3761 19.1582 1.87005 18.2226 0.935559C17.2882 1.9032e-07 15.7821 0 12.7721 0H6.38607C3.3761 0 1.87005 1.9032e-07 0.935559 0.935559ZM3.78375 3.37184C3.54889 3.21518 3.26141 3.15823 2.98456 3.21352C2.70771 3.26881 2.46417 3.43181 2.3075 3.66667C2.15083 3.90153 2.09388 4.189 2.14917 4.46585C2.20446 4.7427 2.36746 4.98625 2.60232 5.14291L8.39874 9.00648C8.74833 9.23942 9.15902 9.36371 9.5791 9.36371C9.99918 9.36371 10.4099 9.23942 10.7595 9.00648L16.5559 5.14291C16.7907 4.98625 16.9537 4.7427 17.009 4.46585C17.0643 4.189 17.0074 3.90153 16.8507 3.66667C16.694 3.43181 16.4505 3.26881 16.1736 3.21352C15.8968 3.15823 15.6093 3.21518 15.3745 3.37184L9.5791 7.23542L3.78375 3.37184Z" fill="var(--fill-0, #0F5395)"/>
</svg>
