<svg preserveAspectRatio="none" width="100%" height="100%" overflow="visible" style="display: block;" viewBox="0 0 126.983 118.813" fill="none" xmlns="http://www.w3.org/2000/svg">
<path id="Vector" opacity="0.4" d="M63.4912 0.5C98.3417 0.5 126.483 25.2738 126.483 55.7012C126.483 86.1285 98.3417 110.902 63.4912 110.902H63.4902C57.243 110.917 51.0212 110.104 44.9863 108.484L44.8008 108.435L44.6299 108.521C40.0493 110.853 29.4561 115.357 11.6025 118.293C10.4445 118.479 9.48981 117.251 9.97656 116.102V116.101C12.8021 109.41 15.3573 100.496 16.1328 92.3525L16.1543 92.1182L15.9893 91.9521C6.33435 82.2481 0.5 69.5601 0.5 55.7012C0.500039 25.2739 28.6408 0.500123 63.4912 0.5Z" stroke="var(--stroke-0, white)" stroke-opacity="0.46"/>
</svg>
