<svg width="49" height="49" viewBox="0 0 49 49" fill="none" xmlns="http://www.w3.org/2000/svg">
<rect y="24.1456" width="34.147" height="34.147" rx="5" transform="rotate(-45 0 24.1456)" fill="#0F5395"/>
<path d="M9.91504 40.1456V39.2724H10.9692C11.8906 39.2724 12.5934 39.1308 13.0776 38.8476C13.5773 38.5487 13.9443 38.1475 14.1786 37.6441C14.3191 37.3137 14.3894 36.3226 14.3894 34.6706V13.6205C14.3894 11.9843 14.3035 10.9617 14.1317 10.5526C13.9599 10.1436 13.6085 9.78962 13.0776 9.4907C12.5622 9.17605 11.8594 9.01873 10.9692 9.01873H9.91504V8.14557H24.1347C27.9297 8.14557 30.9829 8.66474 33.2942 9.70309C36.121 10.9774 38.2606 12.9047 39.713 15.4848C41.181 18.0649 41.915 20.9833 41.915 24.24C41.915 26.4897 41.5558 28.5664 40.8374 30.4701C40.119 32.358 39.1898 33.9233 38.0497 35.1662C36.9097 36.3934 35.59 37.3845 34.0907 38.1397C32.6071 38.8791 30.7877 39.4533 28.6325 39.8624C27.6798 40.0512 26.1805 40.1456 24.1347 40.1456H9.91504ZM22.0263 9.96268V34.9302C22.0263 36.2518 22.0888 37.062 22.2137 37.3609C22.3387 37.6598 22.5495 37.8879 22.8462 38.0453C23.2679 38.2813 23.877 38.3993 24.6735 38.3993C27.2816 38.3993 29.2728 37.5025 30.6471 35.709C32.5212 33.2862 33.4582 29.5261 33.4582 24.4288C33.4582 20.3226 32.8179 17.0423 31.5373 14.588C30.5222 12.6687 29.2181 11.3629 27.6251 10.6706C26.5007 10.1829 24.6344 9.94695 22.0263 9.96268Z" fill="white"/>
</svg>
