<svg preserveAspectRatio="none" width="100%" height="100%" overflow="visible" style="display: block;" viewBox="0 0 25.3333 19" fill="none" xmlns="http://www.w3.org/2000/svg">
<path id="Vector" d="M2.53333 2.53333C2.53333 1.13604 3.66937 0 5.06667 0H16.4667C17.864 0 19 1.13604 19 2.53333V3.8H21.0069C21.6798 3.8 22.325 4.06521 22.8 4.54021L24.5931 6.33333C25.0681 6.80833 25.3333 7.45354 25.3333 8.12646V13.9333C25.3333 15.3306 24.1973 16.4667 22.8 16.4667H22.6694C22.2577 17.9273 20.9119 19 19.3167 19C17.7215 19 16.3796 17.9273 15.964 16.4667H11.9027C11.491 17.9273 10.1452 19 8.55 19C6.95479 19 5.61292 17.9273 5.19729 16.4667H5.06667C3.66937 16.4667 2.53333 15.3306 2.53333 13.9333V12.0333H0.95C0.423542 12.0333 0 11.6098 0 11.0833C0 10.5569 0.423542 10.1333 0.95 10.1333H5.38333C5.90979 10.1333 6.33333 9.70979 6.33333 9.18333C6.33333 8.65688 5.90979 8.23333 5.38333 8.23333H0.95C0.423542 8.23333 0 7.80979 0 7.28333C0 6.75688 0.423542 6.33333 0.95 6.33333H7.91667C8.44313 6.33333 8.86667 5.90979 8.86667 5.38333C8.86667 4.85687 8.44313 4.43333 7.91667 4.43333H0.95C0.423542 4.43333 0 4.00979 0 3.48333C0 2.95687 0.423542 2.53333 0.95 2.53333H2.53333ZM22.8 10.1333V8.12646L21.0069 6.33333H19V10.1333H22.8ZM10.1333 15.5167C10.1333 14.6419 9.42479 13.9333 8.55 13.9333C7.67521 13.9333 6.96667 14.6419 6.96667 15.5167C6.96667 16.3915 7.67521 17.1 8.55 17.1C9.42479 17.1 10.1333 16.3915 10.1333 15.5167ZM19.3167 17.1C20.1915 17.1 20.9 16.3915 20.9 15.5167C20.9 14.6419 20.1915 13.9333 19.3167 13.9333C18.4419 13.9333 17.7333 14.6419 17.7333 15.5167C17.7333 16.3915 18.4419 17.1 19.3167 17.1Z" fill="var(--fill-0, #00A721)"/>
</svg>
